<svg id="Layer_1" data-name="Layer 1" xmlns="http://www.w3.org/2000/svg" viewBox="0 0 470.87 166.08"><defs><style>.cls-1{fill:#2c5366;}</style></defs><path class="cls-1" d="M315.61,235.92a56.47,56.47,0,0,0,30.61-45.59H272v10h61.19c-3.54,13.3-14.14,23.89-27,29a65.73,65.73,0,0,1-11.81,3.06h0a43.58,43.58,0,0,1-5.48.34c-26.07,0-48.3-20.15-48.3-46.66,0-26.23,22.08-47,47.86-47,15.7,0,31.4,8.3,39,21.19H340c-6.35-15.37-27.19-31-51.72-31-32.07,0-58.52,25.28-58.52,56.61,0,32.66,28.67,56.6,58.66,56.6,1.44,0,2.87-.07,4.28-.17h0l.1,0a57.66,57.66,0,0,0,7.13-.94c16.43.19,24.36,8.13,24.36,19.8,0,14.34-11.53,23.5-30.89,23.5-13.89,0-24.68-5-30.14-12L257.35,281c6.51,8.13,19.51,13.45,35.47,13.45,25.42,0,42.42-13.9,42.42-33.85C335.24,248,328.37,239.27,315.61,235.92Z" transform="translate(-229.77 -128.61)"/><path class="cls-1" d="M388.31,154.05V150.5h26.6a20.55,20.55,0,0,1-20.72,18.7c-10.76,0-21-8.58-21-20.29,0-11.24,9.49-20.3,21-20.3,8.79,0,16.27,5.62,18.54,11.13h-4.55c-2.71-4.61-8.32-7.58-13.94-7.58A17,17,0,0,0,377.07,149c0,9.49,7.95,16.69,17.28,16.69,7.1,0,14-4.82,15.84-11.6Z" transform="translate(-229.77 -128.61)"/><path class="cls-1" d="M423.08,155.37a11.5,11.5,0,0,0,11.23,10.49A11,11,0,0,0,444.7,159h3.92a15.13,15.13,0,1,1-14.31-20.25c8.69,0,15.21,7.48,15.21,15.48,0,.37,0,.74,0,1.11ZM445.7,152c-1.06-5.83-5.67-9.91-11.39-9.91A11.49,11.49,0,0,0,423.08,152Z" transform="translate(-229.77 -128.61)"/><path class="cls-1" d="M476.92,168.51V152.35c0-6.52-3.92-10.23-9-10.23-5.62,0-9.06,4.3-9.06,10v16.42h-3.71v-29h3.71v3.71H459a10.43,10.43,0,0,1,8.9-4.46c8,0,12.77,5.52,12.77,13.57v16.16Z" transform="translate(-229.77 -128.61)"/><path class="cls-1" d="M489.85,155.37a11.52,11.52,0,0,0,11.24,10.49A11,11,0,0,0,511.48,159h3.92a15.13,15.13,0,1,1-14.31-20.25c8.69,0,15.21,7.48,15.21,15.48,0,.37,0,.74,0,1.11ZM512.48,152c-1.06-5.83-5.67-9.91-11.39-9.91A11.5,11.5,0,0,0,489.85,152Z" transform="translate(-229.77 -128.61)"/><path class="cls-1" d="M521.92,168.51v-29h3.71v4.18h.1c1.28-3,3.5-4.66,8.17-4.93v3.93h-.06c-5.35.53-8.21,4-8.21,8.69v17.11Z" transform="translate(-229.77 -128.61)"/><path class="cls-1" d="M563.26,168.51v-5.08h-.11a13.34,13.34,0,0,1-11.29,5.77,15.2,15.2,0,0,1-15.58-15.26c0-8.69,7.1-15.16,15.58-15.16a13.07,13.07,0,0,1,11.29,5.83h.11v-5.08H567v29Zm.21-14.46a11.79,11.79,0,0,0-11.66-11.93,11.87,11.87,0,1,0,11.66,11.93Z" transform="translate(-229.77 -128.61)"/><path class="cls-1" d="M577.09,168.51V142.87H571v-3.34h6.09V129.3h3.71v10.23h6.94v3.34H580.8v25.64Z" transform="translate(-229.77 -128.61)"/><path class="cls-1" d="M594.05,155.37a11.52,11.52,0,0,0,11.24,10.49A11,11,0,0,0,615.67,159h3.93a15.13,15.13,0,1,1-14.31-20.25c8.69,0,15.21,7.48,15.21,15.48,0,.37-.06.74-.06,1.11ZM616.68,152c-1.06-5.83-5.67-9.91-11.39-9.91A11.5,11.5,0,0,0,594.05,152Z" transform="translate(-229.77 -128.61)"/><path class="cls-1" d="M388.31,212.05V208.5h26.6a20.55,20.55,0,0,1-20.72,18.7c-10.76,0-21-8.58-21-20.29,0-11.24,9.49-20.3,21-20.3,8.79,0,16.27,5.62,18.54,11.13h-4.55c-2.71-4.61-8.32-7.58-13.94-7.58A17,17,0,0,0,377.07,207c0,9.49,7.95,16.69,17.28,16.69,7.1,0,14-4.82,15.84-11.6Z" transform="translate(-229.77 -128.61)"/><path class="cls-1" d="M419.47,212.21a15.16,15.16,0,1,1,15.11,15A15.34,15.34,0,0,1,419.47,212.21Zm26.61-.37a11.68,11.68,0,0,0-11.5-11.72c-6.31,0-11.4,5.46-11.4,12a11.66,11.66,0,0,0,11.45,11.71C441.15,223.86,446.08,218.46,446.08,211.84Z" transform="translate(-229.77 -128.61)"/><path class="cls-1" d="M464.57,226.51l-12.24-29h4l10.22,24.37,10.39-24.37h4l-12.24,29Z" transform="translate(-229.77 -128.61)"/><path class="cls-1" d="M487.15,213.37a11.52,11.52,0,0,0,11.24,10.49A11,11,0,0,0,508.77,217h3.93a15.13,15.13,0,1,1-14.31-20.25c8.69,0,15.21,7.48,15.21,15.48,0,.37-.06.74-.06,1.11ZM509.78,210c-1.06-5.83-5.67-9.91-11.39-9.91A11.5,11.5,0,0,0,487.15,210Z" transform="translate(-229.77 -128.61)"/><path class="cls-1" d="M519.22,226.51v-29h3.71v4.18h.1c1.27-3,3.5-4.66,8.16-4.93v3.93h-.05c-5.35.53-8.21,4-8.21,8.69v17.11Z" transform="translate(-229.77 -128.61)"/><path class="cls-1" d="M558.43,226.51V210.35c0-6.52-3.92-10.23-9-10.23-5.62,0-9.07,4.3-9.07,10v16.42h-3.71v-29h3.71v3.71h.11a10.44,10.44,0,0,1,8.9-4.46c8,0,12.77,5.52,12.77,13.57v16.16Z" transform="translate(-229.77 -128.61)"/><path class="cls-1" d="M594.74,226.51v-5.08h-.11a13.34,13.34,0,0,1-11.29,5.77,15.21,15.21,0,1,1,0-30.42,13.07,13.07,0,0,1,11.29,5.83h.11v-5.08h3.71v29Zm.21-14.46a11.79,11.79,0,0,0-11.66-11.93A11.87,11.87,0,1,0,595,212.05Z" transform="translate(-229.77 -128.61)"/><path class="cls-1" d="M627,226.51V210.35c0-6.52-3.92-10.23-9-10.23-5.61,0-9.06,4.3-9.06,10v16.42h-3.71v-29h3.71v3.71H609a10.43,10.43,0,0,1,8.9-4.46c8,0,12.77,5.52,12.77,13.57v16.16Z" transform="translate(-229.77 -128.61)"/><path class="cls-1" d="M666.23,218c-3,5.88-7.68,9.22-14.41,9.22a15.18,15.18,0,0,1-15.58-15.47c0-7.95,7-14.95,15.58-14.95a15.23,15.23,0,0,1,14.41,9.49h-4.08a11.4,11.4,0,0,0-10.22-6.15,11.87,11.87,0,1,0,0,23.74A11.1,11.1,0,0,0,662.15,218Z" transform="translate(-229.77 -128.61)"/><path class="cls-1" d="M674.19,213.37a11.5,11.5,0,0,0,11.23,10.49A11,11,0,0,0,695.81,217h3.92a15.13,15.13,0,1,1-14.31-20.25c8.69,0,15.21,7.48,15.21,15.48,0,.37,0,.74,0,1.11ZM696.82,210c-1.07-5.83-5.68-9.91-11.4-9.91A11.49,11.49,0,0,0,674.19,210Z" transform="translate(-229.77 -128.61)"/><path class="cls-1" d="M388.31,270.05V266.5h26.6a20.55,20.55,0,0,1-20.72,18.7c-10.76,0-21-8.58-21-20.29,0-11.24,9.49-20.3,21-20.3,8.79,0,16.27,5.62,18.54,11.13h-4.55c-2.71-4.61-8.32-7.58-13.94-7.58A17,17,0,0,0,377.07,265c0,9.49,7.95,16.69,17.28,16.69,7.1,0,14-4.82,15.84-11.6Z" transform="translate(-229.77 -128.61)"/><path class="cls-1" d="M420.69,284.51v-29h3.71v4.18h.11c1.27-3,3.49-4.66,8.16-4.93v3.93h-.05c-5.36.53-8.22,4-8.22,8.69v17.11Z" transform="translate(-229.77 -128.61)"/><path class="cls-1" d="M435.06,270.21a15.16,15.16,0,1,1,15.1,15A15.34,15.34,0,0,1,435.06,270.21Zm26.6-.38a11.68,11.68,0,0,0-11.5-11.71c-6.31,0-11.39,5.46-11.39,12a11.66,11.66,0,0,0,11.44,11.71C456.73,281.86,461.66,276.46,461.66,269.83Z" transform="translate(-229.77 -128.61)"/><path class="cls-1" d="M492.72,284.51V280h-.11c-1.64,3.34-5,5.19-9.22,5.19-6.2,0-12.56-3.28-12.56-13.09V255.53h3.71v16.16c0,6.57,2.81,10.17,8.85,10.17,5,0,9.11-3.49,9.11-10.44V255.53h3.71v29Z" transform="translate(-229.77 -128.61)"/><path class="cls-1" d="M503.16,294.69V255.53h3.71v5.08H507a13.41,13.41,0,0,1,11.28-5.83,15.21,15.21,0,1,1,0,30.42A13.48,13.48,0,0,1,507,279.43h-.11v15.26Zm15.05-36.57a11.8,11.8,0,0,0-11.55,11.93,11.74,11.74,0,1,0,11.55-11.93Z" transform="translate(-229.77 -128.61)"/></svg>